<svg id="visual" viewBox="0 0 600 900" width="600" height="900" xmlns="http://www.w3.org/2000/svg" xmlns:xlink="http://www.w3.org/1999/xlink" version="1.1"><rect x="0" y="0" width="600" height="900" fill="#fefefe"></rect><defs><linearGradient id="grad1_0" x1="0%" y1="0%" x2="100%" y2="100%"><stop offset="30%" stop-color="#fefefe" stop-opacity="1"></stop><stop offset="70%" stop-color="#fefefe" stop-opacity="1"></stop></linearGradient></defs><defs><linearGradient id="grad2_0" x1="0%" y1="0%" x2="100%" y2="100%"><stop offset="30%" stop-color="#fefefe" stop-opacity="1"></stop><stop offset="70%" stop-color="#fefefe" stop-opacity="1"></stop></linearGradient></defs><g transform="translate(600, 0)"><path d="M0 351.5C-35.9 322.5 -71.7 293.5 -116.3 280.9C-160.9 268.2 -214.2 271.8 -248.6 248.6C-282.9 225.3 -298.3 175.3 -312.3 129.3C-326.3 83.4 -338.9 41.7 -351.5 0L0 0Z" fill="#218b2d"></path></g><g transform="translate(0, 900)"><path d="M0 -351.5C43.6 -340.9 87.1 -330.3 130.5 -315C173.9 -299.8 217.1 -280.1 248.6 -248.6C280.1 -217.1 299.8 -173.9 315 -130.5C330.3 -87.1 340.9 -43.6 351.5 0L0 0Z" fill="#218b2d"></path></g></svg>